<?xml version="1.0" encoding="utf-8"?>
<!-- Generator: Adobe Illustrator 24.0.1, SVG Export Plug-In . SVG Version: 6.00 Build 0)  -->
<svg version="1.1" id="Layer_1" xmlns="http://www.w3.org/2000/svg" xmlns:xlink="http://www.w3.org/1999/xlink" x="0px" y="0px"
	 viewBox="0 0 549.02 311.9" style="enable-background:new 0 0 549.02 311.9;" xml:space="preserve">
<style type="text/css">
	.st0{fill:#A3C8CC;}
	.st1{fill:#395D66;}
	.st2{enable-background:new    ;}
	.st3{fill:#2F3434;}
</style>
<g>
	<path class="st0" d="M453.08,155.95c0,0-6.83,113.16-10.54,122.43s-4.91,38.87-53.87,32.63l-176.08,0.82
		c0,0,36.54-121.42,40.72-119.7C257.49,193.86,340.85,156.88,453.08,155.95z"/>
	<path class="st0" d="M261.71,165.28c0,0,84.66-161.34,93.9-154.42c0,0,125.99-23.57,100.49,90.32
		C456.09,101.18,362.57,116.57,261.71,165.28z"/>
	<path class="st1" d="M212.57,207.84c0,0-11.52,71.04-12,102.24c0,0-57.12,12.48-55.68-27.84S127.13,70.56,127.13,70.56
		S109.85,0,174.65,0l94.08,3.84c0,0-0.31,0.9-0.89,2.57c-0.07,0.21-0.51,1.74-1.24,4.37c-0.17,0.61-0.36,1.29-0.56,2.02
		c-4.85,17.45-18.57,67.36-30.21,109.79c-0.68,2.49-18.47,67.41-18.46,67.49c0,0-51.36,32.16-49.92,35.52
		S185.69,214.08,212.57,207.84z"/>
	<g class="st2">
		<path class="st3" d="M-0.04,183.9l5.54-5.56c3.42,4.97,7.94,7.44,12.36,7.44c7.78,0,11.4-3.83,11.4-13.15V141H4.94v-7.65h33.47
			v40.03c0,11.17-5.16,20.34-20.3,20.34C11.52,193.72,4.38,190.78-0.04,183.9z"/>
		<path class="st3" d="M52.59,170.62c0-14.79,10.36-23.25,22.01-23.25c11.64,0,22.01,8.46,22.01,23.25
			c0,14.64-10.36,23.1-22.01,23.1C62.95,193.72,52.59,185.26,52.59,170.62z M87.38,170.62c0-9.52-4.96-15.85-12.78-15.85
			c-7.82,0-12.78,6.33-12.78,15.85c0,9.45,4.96,15.7,12.78,15.7C82.41,186.32,87.38,180.07,87.38,170.62z"/>
		<path class="st3" d="M117.87,187.75h-0.29l-0.82,4.88h-7.12v-64.11h9.01v17l-0.4,8.13h0.29c3.81-3.85,9.15-6.29,14.1-6.29
			c11.68,0,18.22,8.82,18.22,22.44c0,15.13-9.4,23.92-19.7,23.92C126.86,193.72,121.84,191.51,117.87,187.75z M141.63,169.93
			c0-9.25-3.36-15.05-11.32-15.05c-3.62,0-7.65,1.79-11.66,5.9v20.9c3.66,3.32,7.82,4.52,10.78,4.52
			C136.32,186.21,141.63,180.38,141.63,169.93z"/>
		<path class="st3" d="M163.01,133.42h9.7l17.28,35.2l5.53,12.47h0.21c-0.36-5.96-1.21-13.06-1.21-19.48v-28.18h8.65v59.22h-9.7
			l-17.28-35.21l-5.53-12.45h-0.21c0.36,6.18,1.21,12.91,1.21,19.26v28.4h-8.65V133.42z"/>
		<path class="st3" d="M216.07,170.47c0-14.39,10.84-23.1,22.66-23.1c12.96,0,20.34,8.52,20.34,20.85c0,1.9-0.23,3.73-0.41,4.89
			h-36.35v-6.6h30.74l-1.95,2.2c0-9.57-4.63-14.37-12.12-14.37c-7.73,0-14.08,5.71-14.08,16.13c0,10.85,6.81,16.2,16.3,16.2
			c4.94,0,8.93-1.49,12.91-3.89l3.15,5.69c-4.54,2.99-10.42,5.24-17.2,5.24C226.66,193.72,216.07,185.19,216.07,170.47z"/>
		<path class="st3" d="M285.99,169.72l-15.15-21.26h9.8l6.35,8.98c1.49,2.46,3.3,5.1,5.02,7.48h0.36c1.51-2.38,3.22-5.1,4.65-7.56
			l5.85-8.9h9.49l-15.32,22.11l16.5,22.07h-9.87l-6.95-9.42c-1.83-2.46-3.79-5.39-5.62-7.92h-0.36c-1.69,2.61-3.41,5.23-5.1,8
			l-6.51,9.34h-9.49L285.99,169.72z"/>
		<path class="st3" d="M325.33,175.86v-27.41h9.01v26.23c0,7.64,2.56,11.28,9.2,11.28c4.61,0,7.96-2.05,12.37-7.29v-30.22h9.01
			v44.18h-7.44l-0.72-7.37h-0.36c-4.31,5-9.35,8.45-16.05,8.45C330.01,193.72,325.33,187.37,325.33,175.86z"/>
		<path class="st3" d="M378.97,186.85l4.01-5.83c5.18,3.57,11.2,5.8,18.83,5.8c6.77,0,10.02-2.7,10.02-6.02
			c0-3.13-1.84-5.11-12.96-7.39c-11.67-2.42-17.15-6.46-17.15-13.14c0-7.39,6.64-12.88,18.87-12.88c7.03,0,13.74,2.76,18.16,5.74
			l-4.22,5.62c-4.19-2.79-9.28-4.53-14.72-4.53c-6.57,0-9.11,2.6-9.11,5.62c0,3.46,3.53,4.82,12.2,6.67
			c14.37,3.15,17.98,6.85,17.98,13.77c0,7.4-7.17,13.47-20.21,13.47C392.23,193.72,384.39,190.57,378.97,186.85z"/>
	</g>
	<g>
		<g>
			<g class="st2">
				<path class="st3" d="M478.5,131.21h10.57l19.56,59.22h-9.69l-9.54-32.25c-1.93-6.42-3.87-13.03-5.57-19.73h-0.36
					c-1.78,6.7-3.61,13.32-5.54,19.73l-9.69,32.25h-9.3L478.5,131.21z M469.93,166.21h27.47v7.25h-27.47V166.21z"/>
				<path class="st3" d="M538.54,153.43h-19.75v-7.19h28.76v44.18h-9.01V153.43z M535.6,131.2c0-3.81,2.84-6.43,6.71-6.43
					s6.71,2.62,6.71,6.43c0,3.88-2.84,6.4-6.71,6.4S535.6,135.08,535.6,131.2z"/>
			</g>
		</g>
	</g>
</g>
</svg>
