<?xml version="1.0" encoding="utf-8"?>
<!-- Generator: Adobe Illustrator 23.0.3, SVG Export Plug-In . SVG Version: 6.00 Build 0)  -->
<svg version="1.1" id="Layer_1" xmlns="http://www.w3.org/2000/svg" xmlns:xlink="http://www.w3.org/1999/xlink" x="0px" y="0px"
	 viewBox="0 0 272.13 255.12" style="enable-background:new 0 0 272.13 255.12;" xml:space="preserve">
<style type="text/css">
	.st0{fill:#D1D5DC;}
	.st1{fill:#101728;}
</style>
<g>
	<path class="st0" d="M265.8,127.56c0,0-5.51,91.29-8.5,98.77c-2.99,7.48-3.96,31.35-43.46,26.33l-142.06,0.66
		c0,0,29.48-97.96,32.85-96.57C108,158.14,175.25,128.31,265.8,127.56z"/>
	<path class="st0" d="M111.41,135.08c0,0,68.3-130.16,75.75-124.58c0,0,101.64-19.01,81.07,72.87
		C268.23,83.37,192.78,95.79,111.41,135.08z"/>
	<path class="st1" d="M71.76,169.42c0,0-9.29,57.31-9.68,82.48c0,0-46.08,10.07-44.92-22.46C18.32,196.91,2.83,58.67,2.83,58.67
		S-11.11,1.74,41.17,1.74l75.9,3.1c0,0-0.25,0.73-0.72,2.08c-0.06,0.17-0.41,1.41-1,3.53c-0.14,0.49-0.29,1.04-0.45,1.63
		c-3.92,14.08-14.98,54.34-24.38,88.58c-0.55,2.01-14.9,54.39-14.89,54.45c0,0-41.44,25.95-40.27,28.66
		C36.52,186.46,50.08,174.45,71.76,169.42z"/>
</g>
</svg>
